<?xml version="1.0" encoding="utf-8"?>
<!-- Generator: Adobe Illustrator 27.9.0, SVG Export Plug-In . SVG Version: 6.00 Build 0)  -->
<svg version="1.1" id="Слой_1" xmlns="http://www.w3.org/2000/svg" xmlns:xlink="http://www.w3.org/1999/xlink" x="0px" y="0px"
	 width="23px" height="23px" viewBox="0 0 23 23" style="enable-background:new 0 0 23 23;" xml:space="preserve">
<style type="text/css">
	.st0{fill:#C8102E;}
</style>
<path class="st0" d="M45.7-21.3H26.5c-1,0-1.8,0.8-1.8,1.8v13.8c0,1,0.8,1.8,1.8,1.8h19.2c1,0,1.8-0.8,1.8-1.8v-13.8
	C47.6-20.5,46.7-21.3,45.7-21.3z M34.6-9.8l-7.5,4.8C27-5.1,27-5,26.8-5c-0.2,0-0.5-0.2-0.5-0.3c-0.2-0.3-0.1-0.7,0.2-0.9l7.4-4.8
	c0.3-0.2,0.7-0.1,0.8,0.2C35-10.5,34.9-10.1,34.6-9.8z M36.5-11c-0.2,0-0.3-0.1-0.4-0.2l-9.7-7.4c-0.3-0.2-0.4-0.6-0.2-0.8
	c0.2-0.2,0.6-0.4,0.9-0.2l9.2,7.1l8.7-7.1c0.3-0.2,0.7-0.2,0.9,0.1c0.2,0.3,0.2,0.7-0.1,0.9l-9.1,7.4C36.7-11.1,36.5-11,36.5-11z
	 M46.6-5.3C46.4-5.2,46.3-5,46-5c-0.2,0-0.2,0-0.3-0.1l-7.7-4.8c-0.3-0.2-0.4-0.6-0.2-0.9c0.2-0.3,0.6-0.4,0.9-0.2l7.7,4.8
	C46.7-6,46.7-5.6,46.6-5.3z"/>
<path class="st0" d="M11.1,1.3c-4.1,0-7.4,3.2-7.4,7.2c0,3.7,6.1,12,6.8,12.9c0.1,0.2,0.4,0.3,0.6,0.3c0.2,0,0.4-0.1,0.6-0.3
	c0.7-0.9,6.8-9.2,6.8-12.9C18.5,4.5,15.2,1.3,11.1,1.3z M11.1,11.4c-1.7,0-3-1.3-3-3c0-1.6,1.4-3,3-3s3,1.3,3,3
	C14.2,10.1,12.8,11.4,11.1,11.4z"/>
</svg>
