<svg width="15" height="15" viewBox="0 0 15 15" fill="none" xmlns="http://www.w3.org/2000/svg">
<path d="M14.1429 12.0268C14.1429 12.3884 13.9821 13.0915 13.8315 13.423C13.6205 13.9152 13.058 14.2366 12.606 14.4877C12.0134 14.8092 11.4107 15 10.7377 15C9.80357 15 8.95982 14.6183 8.10603 14.3069C7.4933 14.0859 6.90067 13.8147 6.34821 13.4732C4.64062 12.4185 2.58147 10.3594 1.52679 8.65179C1.18527 8.09933 0.914063 7.5067 0.69308 6.89397C0.381696 6.04018 0 5.19643 0 4.26228C0 3.58929 0.190848 2.98661 0.512277 2.39397C0.763393 1.94196 1.08482 1.37946 1.57701 1.16853C1.90848 1.01786 2.61161 0.857142 2.97321 0.857142C3.04353 0.857142 3.11384 0.857142 3.18415 0.887276C3.39509 0.957589 3.61607 1.44978 3.71652 1.65067C4.03795 2.22321 4.34933 2.8058 4.6808 3.3683C4.84152 3.62946 5.14286 3.95089 5.14286 4.26228C5.14286 4.875 3.32478 5.76897 3.32478 6.31138C3.32478 6.58259 3.57589 6.93415 3.71652 7.17522C4.73103 9.00335 5.99665 10.269 7.82478 11.2835C8.06585 11.4241 8.41741 11.6752 8.68862 11.6752C9.23103 11.6752 10.125 9.85714 10.7377 9.85714C11.0491 9.85714 11.3705 10.1585 11.6317 10.3192C12.1942 10.6507 12.7768 10.9621 13.3493 11.2835C13.5502 11.3839 14.0424 11.6049 14.1127 11.8158C14.1429 11.8862 14.1429 11.9565 14.1429 12.0268Z" fill="#fff"/>
</svg>
